<svg width="16" height="16" viewBox="0 0 16 16" fill="none" xmlns="http://www.w3.org/2000/svg">
<path fill-rule="evenodd" clip-rule="evenodd" d="M1 16H16V9H1V16Z" fill="#62B543" fill-opacity="0.7"/>
<path fill-rule="evenodd" clip-rule="evenodd" d="M7 1L3 5H7V1Z" fill="#9AA7B0" fill-opacity="0.8"/>
<path fill-rule="evenodd" clip-rule="evenodd" d="M8 1V6H3V8H13V1H8Z" fill="#9AA7B0" fill-opacity="0.8"/>
<path fill-rule="evenodd" clip-rule="evenodd" d="M6.5 10L4.9 12.45L6.5 15H5.3L4.25 13.093L3.2 15H2L3.6 12.45L2 10H3.2L4.25 11.814L5.3 10H6.5Z" fill="#FFFFFF" fill-opacity="0.7"/>
<path fill-rule="evenodd" clip-rule="evenodd" d="M8.0996 12.0722H8.6143C8.8594 12.0722 9.041 12.0109 9.15909 11.8884C9.27718 11.7658 9.33623 11.6032 9.33623 11.4004C9.33623 11.3113 9.32286 11.2283 9.29612 11.1514C9.26938 11.0745 9.22872 11.0088 9.17413 10.9542C9.11954 10.8996 9.05103 10.8567 8.96858 10.8255C8.88614 10.7943 8.78922 10.7787 8.67781 10.7787C8.58868 10.7787 8.50457 10.7916 8.42547 10.8172C8.34637 10.8428 8.2773 10.879 8.21825 10.9258C8.1592 10.9726 8.11241 11.03 8.07787 11.0979C8.04334 11.1659 8.02607 11.2422 8.02607 11.3269H7.06016C7.06016 11.1263 7.10194 10.9442 7.18549 10.7804C7.26905 10.6166 7.38269 10.4774 7.5264 10.3626C7.67012 10.2479 7.8389 10.1588 8.03275 10.0953C8.22661 10.0318 8.43382 10 8.65441 10C8.89951 10 9.12288 10.0295 9.32453 10.0886C9.52618 10.1476 9.69942 10.2356 9.84425 10.3526C9.98908 10.4696 10.1016 10.6144 10.1818 10.7871C10.262 10.9598 10.3021 11.1598 10.3021 11.387C10.3021 11.4918 10.286 11.5954 10.2537 11.6979C10.2214 11.8004 10.1735 11.8967 10.11 11.987C10.0465 12.0772 9.96903 12.1608 9.87767 12.2376C9.78632 12.3145 9.6816 12.3797 9.5635 12.4332C9.83757 12.5312 10.042 12.6783 10.1768 12.8743C10.3116 13.0704 10.379 13.3021 10.379 13.5695C10.379 13.7968 10.335 13.9996 10.247 14.1778C10.159 14.3561 10.0381 14.5059 9.88436 14.6273C9.73061 14.7488 9.54846 14.8412 9.3379 14.9047C9.12734 14.9682 8.89951 15 8.65441 15C8.44719 15 8.24443 14.9721 8.04612 14.9164C7.84782 14.8607 7.67124 14.775 7.51638 14.6591C7.36152 14.5432 7.23674 14.3978 7.14205 14.2229C7.04735 14.048 7 13.8402 7 13.5996H7.96591C7.96591 13.691 7.98373 13.7745 8.01938 13.8503C8.05504 13.926 8.10461 13.9912 8.16812 14.0458C8.23162 14.1004 8.30682 14.1433 8.39372 14.1745C8.48062 14.2057 8.57531 14.2213 8.67781 14.2213C8.79144 14.2213 8.89394 14.2057 8.98529 14.1745C9.07665 14.1433 9.15408 14.0982 9.21758 14.0391C9.28108 13.9801 9.32955 13.9099 9.36297 13.8285C9.39639 13.7472 9.4131 13.6564 9.4131 13.5562C9.4131 13.4269 9.39472 13.3161 9.35795 13.2236C9.32119 13.1311 9.26827 13.0559 9.1992 12.998C9.13012 12.9401 9.04601 12.8972 8.94686 12.8693C8.8477 12.8415 8.73685 12.8275 8.6143 12.8275H8.0996V12.0722Z" fill="#FFFFFF" fill-opacity="0.7"/>
</svg>
